<?xml version="1.0" encoding="UTF-8"?>
<svg xmlns="http://www.w3.org/2000/svg" xmlns:xlink="http://www.w3.org/1999/xlink"
     width="400" height="400.0" viewBox="-1.05 -1.05 2.1 2.1">
<defs>
</defs>
<circle cx="0" cy="0" r="1" fill="silver" />
<circle cx="0.22660623773935518" cy="0.3613393850141599" r="0.05" fill="blue" />
<circle cx="-0.17077115558313366" cy="0.41823230122820854" r="0.05" fill="blue" />
<circle cx="0.4690834644683642" cy="0.43664372721761546" r="0.05" fill="blue" />
<circle cx="0.7681672072190252" cy="0.22182132271226906" r="0.05" fill="blue" />
<circle cx="0.3232714384609027" cy="0.3595091840430633" r="0.05" fill="red" />
<circle cx="0.24441202621476724" cy="0.2293057925041686" r="0.05" fill="green" />
<path d="M0.2378421998012492,0.2281453086292035 A1.5440626374510888,1.5440626374510888,0,0,0,0.22048333216752725,0.3607908962860167 A1.2065357091524838,1.2065357091524838,0,0,1,0.23270256299330339,0.36191675722769157 A1.619054667746946,1.619054667746946,0,0,1,0.2509510416946752,0.2304793432467327 A2.426555557168381,2.426555557168381,0,0,0,0.23784219980124843,0.22814530862920313 Z" />
<path d="M0.24258508054524103,0.22288892291665485 A1.5080450138250954,1.5080450138250954,0,0,0,-0.17403980594126522,0.41322368635402684 A1.0730518582761703,1.0730518582761703,0,0,1,-0.16754293284498623,0.423239610058061 A1.5794982905520945,1.5794982905520945,0,0,1,0.2462475742424865,0.23569031928605177 A2.5818447171122396,2.5818447171122396,0,0,1,0.24258508054524075,0.22288892291665507 Z" />
<path d="M0.23991468031074703,0.23421432238102113 A125.31363780844083,125.31363780844083,0,0,0,0.4660983027498702,0.4399027770801496 A0.4597800264908296,0.4597800264908296,0,0,1,0.4720999091287305,0.43341342226243856 A45.4178544680526,45.4178544680526,0,0,0,0.24893420056642412,0.22441970332491223 A1.3244042693918399,1.3244042693918399,0,0,0,0.23991468031142948,0.2342143223816392 Z" />
<path d="M0.24556613127714344,0.2358489156718344 A1.6986855160963443,1.6986855160963443,0,0,1,0.767793847222934,0.22449846572529086 A0.2276939836485608,0.2276939836485608,0,0,1,0.7685730100376755,0.21914443594493282 A1.6163229610949366,1.6163229610949366,0,0,0,0.2432731113398547,0.22273284798364745 A2.2052087235529845,2.2052087235529845,0,0,0,0.24556613127714355,0.23584891567183425 Z" />
</svg>