<?xml version="1.0" encoding="UTF-8"?>
<svg xmlns="http://www.w3.org/2000/svg" xmlns:xlink="http://www.w3.org/1999/xlink"
     width="400" height="400.0" viewBox="-1.05 -1.05 2.1 2.1">
<defs>
</defs>
<circle cx="0" cy="0" r="1" fill="silver" />
<circle cx="0.5985789284299697" cy="0.4544969781115915" r="0.05" fill="blue" />
<circle cx="-0.1408320698663221" cy="0.47700007511603326" r="0.05" fill="blue" />
<circle cx="-0.31865461460467726" cy="0.7191435822769501" r="0.05" fill="blue" />
<circle cx="0.04868640209199122" cy="0.6181678859137091" r="0.05" fill="blue" />
<circle cx="0.04694466151274039" cy="0.567202130354571" r="0.05" fill="red" />
<circle cx="0.01861440659188722" cy="0.35769262468767726" r="0.05" fill="green" />
<path d="M0.019125483908223828,0.36419275346049407 A1.2400807234318934,1.2400807234318934,0,0,1,0.5972982603853381,0.4574938479754027 A0.2980326433680787,0.2980326433680787,0,0,1,0.5998958602240944,0.4515063041060412 A1.195604669963849,1.195604669963849,0,0,0,0.01809964527151206,0.35115756528788844 A45.85225641612532,45.85225641612532,0,0,1,0.01912548390821911,0.36419275346043234 Z" />
<path d="M0.015063742440956318,0.35218496926190324 A1.372942679477591,1.372942679477591,0,0,0,-0.1445472257281305,0.4727352957058366 A0.8988546966917721,0.8988546966917721,0,0,1,-0.13715859265961994,0.4812708672362015 A1.4319164320006659,1.4319164320006659,0,0,1,0.022133919071933073,0.36318405404669796 A2.4520418558663,2.4520418558663,0,0,0,0.015063742440957206,0.3521849692619041 Z" />
<path d="M0.014633418553409827,0.3524884572672291 A1.4421675693655227,1.4421675693655227,0,0,0,-0.321054389961942,0.7175833904045754 A0.2457182592888345,0.2457182592888345,0,0,1,-0.31627777431598914,0.7207285178517983 A1.507379493136442,1.507379493136442,0,0,1,0.022562051345019873,0.3628857497081486 A2.1567080006477752,2.1567080006477752,0,0,0,0.014633418553409383,0.3524884572672289 Z" />
<path d="M0.012129143464754577,0.35850894436446046 A23.30100295257432,23.30100295257432,0,0,1,0.044099835668507836,0.6186837204161488 A0.49650885226327346,0.49650885226327346,0,0,1,0.05327879372018157,0.6176945885458682 A13.714719986227983,13.714719986227983,0,0,0,0.0251064092533273,0.35691077621429024 A1.2199048984910923,1.2199048984910923,0,0,0,0.012129143464740172,0.3585089443643481 Z" />
</svg>